<svg width="115" height="17" viewBox="0 0 115 17" fill="none" xmlns="http://www.w3.org/2000/svg">
<path d="M106.44 11.24H115C114.96 6.78 112.84 4.22 109.17 4.22C105.5 4.22 103.11 6.75 103.11 10.67C103.11 12.16 103.59 17 109.74 17C112.26 17 113.61 16.47 114.16 16.25V13.94C113.55 14.19 112.34 14.67 110.47 14.67C108.09 14.67 106.54 13.27 106.44 11.23V11.24ZM94.32 6.69H95.99V13.61C95.99 15.7 97.47 17 99.86 17C101.03 17 102.14 16.72 102.45 16.63V14.5C101.89 14.61 101.43 14.66 101.11 14.66C99.63 14.66 99.05 14.01 99.05 12.35V6.68H102.34V4.49H99.05V1.83H96V4.5H94.33V6.69H94.32ZM85.12 6.8C85.22 6.76 86.24 6.41 87.13 6.41C88.93 6.41 89.74 7.18 89.74 8.91V9.63H88.14C84.1 9.63 81.96 10.97 81.96 13.51C81.96 15.64 83.53 17.01 85.95 17.01C88.37 17.01 89.63 15.52 89.94 15.03H90.03L90.13 16.72H93.88V14.53H92.61V9C92.61 5.83 90.76 4.22 87.1 4.22C84.91 4.22 82.97 5.23 82.56 5.46V8.43H85.14V6.8H85.12ZM72.77 6.69H74.44V13.61C74.44 15.7 75.92 17 78.31 17C79.48 17 80.59 16.72 80.9 16.63V14.5C80.59 14.56 80.01 14.66 79.56 14.66C78.08 14.66 77.5 14.01 77.5 12.35V6.68H80.79V4.49H77.5V1.83H74.45V4.5H72.78V6.69H72.77ZM62.53 14.03V11.91H59.66V16.11C61.44 16.73 63.14 17 65.14 17C69.22 17 71.47 15.16 71.47 11.82C71.47 8.48 69.02 7.49 66.71 6.88L65.08 6.45C63.75 6.11 63.07 5.38 63.07 4.29C63.07 3.2 63.94 2.19 65.87 2.19C66.71 2.19 67.57 2.47 67.93 2.61V4.62H70.79V0.84C69.46 0.31 67.59 0 65.77 0C61.87 0 59.73 1.64 59.73 4.62C59.73 7.28 60.95 8.7 63.95 9.52L65.36 9.91C67.33 10.45 68.13 11.17 68.13 12.4C68.13 13.77 67.17 14.52 65.42 14.52C64.5 14.52 63.11 14.2 62.51 14.02L62.53 14.03ZM17.44 11.24H26C25.96 6.78 23.84 4.22 20.17 4.22C16.5 4.22 14.11 6.75 14.11 10.67C14.11 12.16 14.59 17 20.74 17C23.26 17 24.61 16.47 25.16 16.25V13.94C24.55 14.19 23.34 14.67 21.47 14.67C19.09 14.67 17.54 13.27 17.44 11.23V11.24ZM35.96 16.72H41.76V14.53H40.35V9.06C40.35 6.12 38.53 4.22 35.71 4.22C33.37 4.22 32.18 5.57 31.85 6.14H31.77L31.68 4.5H27.4V6.69H29V14.53H27.66V16.72H33.46V14.53H32.05V9.64C32.05 7.86 33 6.83 34.66 6.83C36.32 6.83 37.29 7.85 37.29 9.64V14.53H35.95V16.72H35.96ZM0 16.71H6.43V14.52H4.81V10.27H7.43C11.14 10.27 13.36 8.4 13.36 5.27C13.36 2.14 11.14 0.29 7.43 0.29H0V2.48H1.62V14.54H0V16.73V16.71ZM86.94 14.81C85.52 14.81 85.01 13.94 85.01 13.19C85.01 11.95 86.1 11.42 88.66 11.42H89.7V11.54C89.7 13.78 88.27 14.81 86.95 14.81H86.94ZM106.41 9.19C106.52 7.41 107.53 6.26 109.06 6.26C110.7 6.26 111.67 7.31 111.67 9.07V9.19H106.41ZM17.42 9.19C17.56 7.34 18.54 6.25 20.07 6.25C21.71 6.25 22.68 7.3 22.68 9.06V9.18H17.42V9.19ZM7.08 8.09H4.81V2.47H7.03C8.88 2.47 10.03 3.55 10.03 5.28C10.03 7.01 8.9 8.09 7.07 8.09H7.08ZM51.7 16.71H57.5V14.52H56.09V9.05C56.09 6.11 54.27 4.21 51.45 4.21C49.11 4.21 47.92 5.56 47.59 6.13H47.51L47.42 4.49H43.14V6.68H44.74V14.52H43.4V16.71H49.2V14.52H47.79V9.63C47.79 7.85 48.74 6.82 50.4 6.82C52.06 6.82 53.03 7.84 53.03 9.63V14.52H51.69V16.71H51.7Z" fill="white"/>
</svg>
